<svg xmlns="http://www.w3.org/2000/svg" height="16" viewBox="0 0 16 16" width="16"><path d="M5.082 7.273c-.003.577 0 1.155.002 1.732.968.032 1.94.017 2.907.032-.42 2.147-3.34 2.843-4.89 1.44-1.59-1.23-1.51-3.927.14-5.07 1.158-.922 2.8-.694 3.95.104.46-.42.88-.86 1.29-1.33-.96-.762-2.14-1.31-3.39-1.25C2.468 2.838.06 5.13.018 7.748c-.17 2.14 1.24 4.24 3.224 4.995 1.98.765 4.52.246 5.785-1.532.835-1.12 1.014-2.57.917-3.925-1.62-.014-3.24-.01-4.86-.006zm9.468-.008c-.006-.482-.008-.968-.01-1.45h-1.444c-.005.482-.01.965-.012 1.45-.486.003-.968.005-1.45.01V8.72l1.45.013c.005.483.005.966.01 1.45h1.445c0-.484 0-.967.01-1.452L16 8.72V7.274c-.483-.005-.968-.005-1.45-.01z" fill="#828282"/></svg>